<?xml version="1.0" encoding="utf-8"?>
<!-- Generator: Adobe Illustrator 27.5.0, SVG Export Plug-In . SVG Version: 6.00 Build 0)  -->
<svg version="1.1" id="Layer_1" xmlns="http://www.w3.org/2000/svg" xmlns:xlink="http://www.w3.org/1999/xlink" x="0px" y="0px"
	 viewBox="0 0 235.122 332.034" style="enable-background:new 0 0 235.122 332.034;" xml:space="preserve">
<g>
	<g>
		<path style="fill:#3B271F;" d="M45.088,160.242c0,0-40.151-7.107-34.817-43.822c-10.355-10.983-8.786-37.657,4.707-47.384
			c0,0,3.138-38.598,42.991-47.071C70.522,4.706,104.727,3.451,120.731,7.53c31.067-9.728,54.916,11.297,58.995,14.435
			c32.322,8.786,37.97,30.753,39.225,36.715c18.201,17.887,13.18,35.46,6.904,50.522c5.335,23.535-9.971,40.57-28.835,45.389
			C178.157,159.411,45.088,160.242,45.088,160.242z"/>
		<path style="fill:#26170F;" d="M44.829,155.955c0,0-37.424-8.997-30.294-43.285c-9.128-10.942-6.121-35.983,7.15-44.376
			c0,0,5.168-36.187,43.203-41.887c12.816-15.542,45.115-14.765,59.961-10.005c29.828-7.386,51.094,13.791,54.758,16.981
			c29.95,10.131,34.014,31.151,34.855,36.841c16.124,17.896,10.386,34.166,3.61,47.998c3.678,22.481-11.719,37.654-29.769,41.114
			C170.254,162.796,44.829,155.955,44.829,155.955z"/>
		<path style="fill:#62361D;" d="M141.696,228.919c0,0-3.135,16.312,0.519,29.405c2.076,7.438,8.303,19.891,29.232,22.486
			c9.34,0.865,33.383-3.286,39.61,5.881c6.227,9.167-30.29,37.844-77.198,39.864c-16.843,1.122-30.962,0-30.962,0
			c-46.908-2.02-83.425-30.697-77.198-39.864c6.227-9.167,30.269-5.016,39.61-5.881c20.929-2.594,27.156-15.048,29.232-22.486
			c3.654-13.093,0.519-29.405,0.519-29.405S140.994,228.919,141.696,228.919z"/>
		<path style="opacity:0.47;fill:#834D2A;" d="M96.033,249.838c3.395,1.548,6.953,2.736,10.634,3.498
			c7.668,1.586,15.595,1.335,23.243-0.241c3.681-0.759,7.293-1.809,10.826-3.084c-1.019-10.797,0.959-21.092,0.959-21.092
			c-0.702,0-46.638,0-46.638,0S97.015,239.104,96.033,249.838z"/>
		<path style="opacity:0.47;fill:#834D2A;" d="M84.94,287.502c0,0,35.911,10.773,74.29,0.449
			C127.584,304.335,108.507,298.948,84.94,287.502z"/>
		<g>
			<path style="fill:#834D2A;" d="M34.951,173.151c1.993,3.009,4.461,5.768,7.476,7.828c2.375,1.623,6.817,4.37,9.672,3.116
				c2.928-1.286,3.371-6.343,3.588-9.106c0.305-3.902-0.239-8.069-1.474-11.922c-0.225-2.115-0.68-4.26-1.501-6.265
				c-1.408-3.44-3.944-7.019-7.471-8.632c-6.166-2.822-12.818-0.193-14.748,5.9C28.452,160.51,31.199,167.485,34.951,173.151z"/>
			<path style="opacity:0.47;fill:#834D2A;" d="M49.102,184.261c-0.37-1.428-0.722-2.86-1.05-4.297
				c-1.31-5.729-2.298-11.546-2.653-17.373c-0.286-4.686-0.175-9.427,0.689-13.98c3.087,1.765,5.332,5.034,6.624,8.191
				c0.821,2.005,1.276,4.15,1.501,6.265c1.235,3.853,1.779,8.02,1.474,11.922c-0.216,2.763-0.66,7.821-3.588,9.106
				C51.216,184.484,50.181,184.487,49.102,184.261z"/>
			<path style="opacity:0.47;fill:#834D2A;" d="M33.441,154.49c0.701-1.128,1.956-1.729,3.252-1.802
				c2.983-0.169,6.007,2.227,7.854,4.554c4.112,5.179,4.774,12.274,4.91,18.521c0.008,0.365-0.506,0.073-0.539-0.184
				c-0.132-1.016-0.265-2.047-0.412-3.085c-0.13,0.725-0.315,1.432-0.498,2.064c-0.359,1.242-1.142,2.309-2.503,2.28
				c-3.285-0.07-5.492-4.281-7.04-6.713c-0.146-0.229,0.188-0.266,0.31-0.108c1.451,1.869,2.946,4.289,5.137,5.298
				c1.764,0.812,2.574-0.454,3.081-1.927c0.418-1.214,1.072-2.608,0.825-3.951c-0.034-0.186,0.037-0.276,0.143-0.301
				c-0.578-3.086-1.414-6.135-2.872-8.893c-1.266-2.395-3.21-4.638-5.716-5.65c-1.707-0.689-3.582-0.536-4.667,1.007
				c-1.013,1.441-0.741,3.464-1.008,5.18c-0.032,0.204-0.348-0.019-0.354-0.163C33.273,158.569,32.295,156.336,33.441,154.49z"/>
		</g>
		<g>
			<path style="fill:#834D2A;" d="M205.9,154.069c-1.93-6.092-8.582-8.721-14.748-5.9c-3.527,1.614-6.063,5.193-7.471,8.632
				c-0.821,2.005-1.276,4.15-1.501,6.265c-1.235,3.853-1.779,8.02-1.474,11.922c0.216,2.763,0.66,7.821,3.588,9.106
				c2.855,1.254,7.297-1.494,9.672-3.116c3.015-2.06,5.483-4.819,7.476-7.828C205.194,167.485,207.94,160.51,205.9,154.069z"/>
			<path style="opacity:0.47;fill:#834D2A;" d="M187.29,184.261c0.37-1.428,0.722-2.86,1.05-4.297
				c1.309-5.729,2.298-11.546,2.653-17.373c0.286-4.686,0.175-9.427-0.689-13.98c-3.087,1.765-5.331,5.034-6.624,8.191
				c-0.821,2.005-1.276,4.15-1.501,6.265c-1.235,3.853-1.779,8.02-1.474,11.922c0.216,2.763,0.66,7.821,3.588,9.106
				C185.176,184.484,186.212,184.487,187.29,184.261z"/>
			<path style="opacity:0.47;fill:#834D2A;" d="M202.951,154.49c-0.701-1.128-1.956-1.729-3.252-1.802
				c-2.983-0.169-6.007,2.227-7.854,4.554c-4.112,5.179-4.774,12.274-4.91,18.521c-0.008,0.365,0.506,0.073,0.539-0.184
				c0.132-1.016,0.265-2.047,0.412-3.085c0.13,0.725,0.315,1.432,0.498,2.064c0.359,1.242,1.142,2.309,2.503,2.28
				c3.285-0.07,5.492-4.281,7.04-6.713c0.146-0.229-0.188-0.266-0.31-0.108c-1.451,1.869-2.945,4.289-5.137,5.298
				c-1.764,0.812-2.574-0.454-3.081-1.927c-0.418-1.214-1.072-2.608-0.824-3.951c0.034-0.186-0.037-0.276-0.143-0.301
				c0.578-3.086,1.414-6.135,2.872-8.893c1.266-2.395,3.21-4.638,5.716-5.65c1.707-0.689,3.582-0.536,4.667,1.007
				c1.013,1.441,0.741,3.464,1.008,5.18c0.032,0.204,0.349-0.019,0.354-0.163C203.12,158.569,204.098,156.336,202.951,154.49z"/>
		</g>
		<circle style="fill:#F7931E;" cx="46.508" cy="182.686" r="6.528"/>
		<circle style="fill:#F7931E;" cx="191.101" cy="182.686" r="6.528"/>
		<path style="fill:#834D2A;" d="M188.232,133.169c-1.229-19.055-14.228-62.187-73.217-60.345
			C55.578,74.68,49.729,127.54,49.03,143.186c0,0-2.349,42.29,19.337,66.82c10.255,11.6,23.371,21.089,37.771,26.853
			c3.601,1.441,7.518,2.793,11.491,3.069c4.118,0.286,7.784-0.928,11.585-2.339c6.163-2.286,12.079-5.283,17.678-8.718
			c9.535-5.849,18.411-13.18,25.051-22.246C187.925,184.803,189.461,152.225,188.232,133.169z"/>
		<g>
			<g>
				<circle style="fill:#421C0B;" cx="155.857" cy="160.159" r="9.298"/>
				<circle style="fill:#1A0F05;" cx="155.857" cy="160.159" r="6.923"/>
				<path style="fill:#FFFFFF;" d="M156.749,156.337c0,1.514,1.228,2.742,2.742,2.742c1.514,0,2.742-1.228,2.742-2.742
					c0-1.514-1.228-2.742-2.742-2.742C157.976,153.595,156.749,154.822,156.749,156.337z"/>
				<circle style="fill:#FFFFFF;" cx="162.465" cy="160.394" r="0.81"/>
			</g>
		</g>
		<g>
			<path style="fill:#FFFFFF;" d="M99.828,164.658c0,0-5.087,9.277-21.397,6.434c-16.309-2.843-15.861-17.207-15.861-17.207
				S85.464,136.229,99.828,164.658z"/>
			<g>
				<g>
					
						<ellipse transform="matrix(0.3849 -0.923 0.923 0.3849 -97.1803 174.1951)" style="fill:#421C0B;" cx="82.094" cy="160.004" rx="9.298" ry="9.298"/>
					<path style="fill:#1A0F05;" d="M75.171,160.004c0,3.824,3.1,6.924,6.923,6.924s6.923-3.1,6.923-6.924
						c0-3.824-3.1-6.923-6.923-6.923S75.171,156.18,75.171,160.004z"/>
					<circle style="fill:#FFFFFF;" cx="85.727" cy="156.182" r="2.742"/>
					<path style="fill:#FFFFFF;" d="M87.893,160.239c0,0.447,0.362,0.81,0.81,0.81c0.447,0,0.81-0.362,0.81-0.81
						c0-0.447-0.363-0.81-0.81-0.81C88.255,159.429,87.893,159.792,87.893,160.239z"/>
				</g>
			</g>
			<path style="fill:#150807;" d="M98.115,161.535c0,0-12.958-22.245-33.93-6.067c-0.075,3.37,2.701,15.827,20.915,16.197
				c0,0-20.064,2.591-23.692-15.918c0,0-6.071,0.814-7.552-4.738c2.221,3.036,8.663-0.074,13.993-2.369
				C73.18,146.344,88.473,143.261,98.115,161.535z"/>
			<path style="fill:#834D2A;" d="M97.51,157.106c-1.147-3.35-3.184-6.777-5.962-8.959c-3.011-2.366-6.884-3.307-10.704-3.533
				c-2.247-0.133-4.489,0.127-6.637,0.803c-0.036,0.011-0.108,0.125-0.053,0.11c3.79-1.031,7.88-0.902,11.587,0.401
				c3.405,1.198,6.405,3.416,8.617,6.262c1.21,1.557,2.172,3.309,2.874,5.151C97.286,157.486,97.554,157.235,97.51,157.106z"/>
		</g>
		<g>
			<path style="fill:#FFFFFF;" d="M137.301,164.658c0,0,5.087,9.277,21.397,6.434c16.309-2.843,15.86-17.207,15.86-17.207
				S151.666,136.229,137.301,164.658z"/>
			<g>
				<g>
					
						<ellipse transform="matrix(0.3849 -0.923 0.923 0.3849 -52.311 241.5185)" style="fill:#421C0B;" cx="155.036" cy="160.004" rx="9.298" ry="9.298"/>
					<path style="fill:#1A0F05;" d="M148.112,160.004c0,3.824,3.1,6.924,6.923,6.924c3.824,0,6.923-3.1,6.923-6.924
						c0-3.824-3.1-6.923-6.923-6.923C151.212,153.08,148.112,156.18,148.112,160.004z"/>
					<path style="fill:#FFFFFF;" d="M155.927,156.182c0,1.514,1.228,2.742,2.742,2.742c1.514,0,2.742-1.228,2.742-2.742
						c0-1.514-1.228-2.742-2.742-2.742C157.155,153.44,155.927,154.667,155.927,156.182z"/>
					<path style="fill:#FFFFFF;" d="M160.834,160.239c0,0.447,0.362,0.81,0.81,0.81c0.447,0,0.81-0.362,0.81-0.81
						c0-0.447-0.363-0.81-0.81-0.81C161.197,159.429,160.834,159.792,160.834,160.239z"/>
				</g>
			</g>
			<path style="fill:#150807;" d="M139.015,161.535c0,0,12.958-22.245,33.93-6.067c0.075,3.37-2.702,15.827-20.915,16.197
				c0,0,20.064,2.591,23.692-15.918c0,0,6.071,0.814,7.552-4.738c-2.221,3.036-8.663-0.074-13.993-2.369
				C163.95,146.344,148.656,143.261,139.015,161.535z"/>
			<path style="fill:#834D2A;" d="M139.62,157.106c1.146-3.35,2.988-6.694,5.766-8.877c3.011-2.366,7.08-3.389,10.901-3.616
				c2.247-0.133,4.489,0.127,6.637,0.803c0.036,0.011,0.108,0.125,0.053,0.11c-3.79-1.031-7.88-0.902-11.587,0.401
				c-3.405,1.198-6.405,3.416-8.616,6.262c-1.21,1.557-2.172,3.309-2.874,5.151C139.844,157.486,139.576,157.235,139.62,157.106z"/>
		</g>
		<path style="fill:#150807;" d="M57.398,133.182c0,0,15.458-10.511,38.799,0.155c2.782,1.855,6.338-2.164,4.019-4.792
			C97.897,125.917,67.446,114.787,57.398,133.182z"/>
		<path style="fill:#150807;" d="M179.561,133.182c0,0-15.458-10.511-38.799,0.155c-2.782,1.855-6.338-2.164-4.019-4.792
			C139.062,125.917,169.513,114.787,179.561,133.182z"/>
		<g>
			<path style="fill:#934B24;" d="M126.986,210.743c-3.04-0.877-3.591,1.796-8.155,1.721c-4.803-0.079-4.143-2.434-9.342-1.381
				c-5.198,1.053-9.693-0.347-9.693-0.347c2.987,6.067,8.9,9.663,17.576,9.771c9.04,0.112,15.083-2.443,20.117-9.315
				C134.818,211.694,130.01,211.615,126.986,210.743z"/>
			<path style="fill:#4E1D06;" d="M109.489,211.082c5.198-1.053,4.539,1.303,9.342,1.381c4.564,0.075,5.115-2.598,8.155-1.721
				c3.024,0.872,7.832,0.951,10.503,0.448c0.028-0.038,0.056-0.074,0.083-0.112c-1.795-0.786-4.855-3.5-13.13-8.865
				c-3.089-2.003-5.267,0.487-6.138,0.367c-0.947-0.131-2.873-2.577-6.981,0.338c-4.107,2.915-11.527,7.817-11.527,7.817
				S104.291,212.135,109.489,211.082z"/>
		</g>
		<g>
			<g>
				<path style="fill:#834D2A;" d="M107.734,184.942c-1.181-0.147-2.35,0.548-2.988,1.514c-0.67,1.013-0.663,2.326-0.048,3.363
					c0.339,0.572,0.832,1.01,1.451,1.254c0.068,0.027,0.207-0.152,0.141-0.187c-0.932-0.488-1.608-1.442-1.756-2.483
					c-0.159-1.117,0.366-2.193,1.309-2.802c0.547-0.353,1.171-0.531,1.821-0.535C107.703,185.066,107.786,184.949,107.734,184.942z"
					/>
				<path style="fill:#834D2A;" d="M128.132,184.942c1.181-0.147,2.349,0.548,2.988,1.514c0.67,1.013,0.663,2.326,0.048,3.363
					c-0.339,0.572-0.832,1.01-1.451,1.254c-0.068,0.027-0.207-0.152-0.141-0.187c0.932-0.488,1.608-1.442,1.756-2.483
					c0.16-1.117-0.366-2.193-1.309-2.802c-0.547-0.353-1.171-0.531-1.821-0.535C128.162,185.066,128.08,184.949,128.132,184.942z"/>
			</g>
			<path style="fill:#834D2A;" d="M106.29,190.887c0,0,2.09-1.444,5.583,0.105c3.12,1.384,4.321,2.693,6.004,2.693
				c1.942,0,3.721-1.413,6.146-2.424c2.425-1.01,5.568-1.316,5.553-0.375c-0.015,0.941-8.907,3.043-11.737,3.043
				S104.968,191.603,106.29,190.887z"/>
		</g>
	</g>
	<path style="fill:#4E1D06;" d="M118.796,198.586c-0.005-0.355-0.009-0.711-0.015-1.066c-0.012-0.69,0.005-1.389-0.057-2.077
		c-0.01-0.112-0.169,0.049-0.174,0.111c-0.057,0.695-0.044,1.4-0.056,2.097c-0.006,0.347-0.01,0.694-0.014,1.04
		c-0.002,0.16-0.004,0.319-0.004,0.479c0.001,0.139-0.027,0.3,0.069,0.41c0.058,0.066,0.168-0.08,0.188-0.118
		C118.861,199.214,118.799,198.859,118.796,198.586z"/>
</g>
</svg>
